<?xml version="1.0" encoding="UTF-8"?>
<svg version="1.1" xmlns="http://www.w3.org/2000/svg" width="1024" height="1024">
<path d="M0 0 C0.85964355 0.42780762 1.71928711 0.85561523 2.60498047 1.29638672 C46.68603723 23.41148007 85.59186563 54.5678631 120.375 89.25 C120.8972818 89.76960297 121.4195636 90.28920593 121.95767212 90.82455444 C127.85781724 96.70174767 133.61713259 102.63842942 139 109 C139.88852953 110.02152397 140.77780731 111.04239777 141.66796875 112.0625 C148.8416151 120.42619311 155.51562406 129.09311968 162 138 C162.74467529 139.0211792 162.74467529 139.0211792 163.50439453 140.06298828 C210.61492411 204.96844274 240.33889918 280.92215304 249.375 360.625 C249.45462982 361.32382294 249.53425964 362.02264587 249.61630249 362.74264526 C251.47724206 379.39930063 252.21149674 396.05722275 252.1875 412.8125 C252.18659363 414.00397141 252.18659363 414.00397141 252.18566895 415.21951294 C251.99777644 507.29486055 224.5592238 599.12112059 172 675 C171.54302734 675.66805664 171.08605469 676.33611328 170.61523438 677.02441406 C163.67902579 687.15653472 156.30729969 696.801131 148.45605469 706.23974609 C146.42138879 708.69949478 144.43426675 711.19694797 142.4375 713.6875 C137.74157804 719.41652479 132.72669745 724.8218231 127.66064453 730.22167969 C125.89749315 732.10977064 124.1490187 734.01072461 122.40234375 735.9140625 C111.6266024 747.62182206 111.6266024 747.62182206 105.7109375 752.5390625 C103.92541819 754.06368401 102.3164164 755.68490364 100.6875 757.375 C97.03532376 761.08488557 93.05157538 764.30490824 88.99609375 767.5625 C86.4574374 769.62784754 83.97643085 771.74367986 81.50756836 773.89135742 C16.39482648 830.23600189 -68.6198662 862.99016831 -153 875 C-154.25393555 875.18079102 -155.50787109 875.36158203 -156.79980469 875.54785156 C-194.95265365 880.75568956 -235.89589957 880.46871229 -274 875 C-274.69172302 874.90289734 -275.38344604 874.80579468 -276.09613037 874.70574951 C-318.91043702 868.67888145 -360.33069722 857.31459067 -400 840 C-401.55307368 839.3391107 -403.10645551 838.67894504 -404.66015625 838.01953125 C-420.72633163 831.12689585 -435.89955035 822.75867102 -450.9375 813.875 C-452.0505249 813.21822266 -453.1635498 812.56144531 -454.31030273 811.88476562 C-478.44363099 797.49783101 -501.55191277 780.62855958 -522.19921875 761.5546875 C-523.66909379 760.21396466 -525.14365094 758.87740884 -526.65698242 757.5859375 C-532.80171064 752.33900672 -538.50794776 746.67816935 -544.2175293 740.96777344 C-545.92543056 739.26205402 -547.64118045 737.56450973 -549.35742188 735.8671875 C-555.30463541 729.94967914 -560.90121977 723.95817902 -566.10595703 717.36767578 C-567.97056997 715.03678943 -569.9219043 712.82574492 -571.9375 710.625 C-576.9661751 705.01228586 -581.49917353 699.03651284 -586 693 C-586.49129395 692.34386719 -586.98258789 691.68773437 -587.48876953 691.01171875 C-645.31026489 613.45386832 -676.75434446 519.58190213 -679 423 C-679.02191406 422.25476074 -679.04382813 421.50952148 -679.06640625 420.74169922 C-681.32710415 337.71756867 -658.92168779 252.57518817 -617 181 C-616.57251465 180.27006836 -616.1450293 179.54013672 -615.70458984 178.78808594 C-599.94251351 152.07606773 -581.57101377 126.35190172 -560.4140625 103.625 C-558.52702615 101.57307698 -556.70744322 99.49473243 -554.89453125 97.37890625 C-550.64462592 92.50603201 -546.09178649 87.94127068 -541.51196289 83.3815918 C-540.06475615 81.93974779 -538.62297974 80.49262884 -537.18164062 79.04492188 C-531.95831807 73.81751488 -526.63685016 68.77939176 -521 64 C-519.99039117 63.12296447 -518.98124432 62.24539671 -517.97265625 61.3671875 C-509.24350222 53.89175089 -500.21168073 46.86989908 -491 40 C-490.27119629 39.45553223 -489.54239258 38.91106445 -488.79150391 38.35009766 C-422.99938058 -10.57597858 -344.30853926 -40.00997257 -263 -49 C-262.13052734 -49.10441406 -261.26105469 -49.20882812 -260.36523438 -49.31640625 C-176.02950071 -59.20879372 -88.44383639 -42.40505717 0 0 Z " fill="#F64828" transform="translate(726,99)"/>
<path d="M0 0 C0.85964355 0.42780762 1.71928711 0.85561523 2.60498047 1.29638672 C46.68603723 23.41148007 85.59186563 54.5678631 120.375 89.25 C120.8972818 89.76960297 121.4195636 90.28920593 121.95767212 90.82455444 C127.85781724 96.70174767 133.61713259 102.63842942 139 109 C139.88852953 110.02152397 140.77780731 111.04239777 141.66796875 112.0625 C148.8416151 120.42619311 155.51562406 129.09311968 162 138 C162.74467529 139.0211792 162.74467529 139.0211792 163.50439453 140.06298828 C210.61492411 204.96844274 240.33889918 280.92215304 249.375 360.625 C249.45462982 361.32382294 249.53425964 362.02264587 249.61630249 362.74264526 C251.47724206 379.39930063 252.21149674 396.05722275 252.1875 412.8125 C252.18659363 414.00397141 252.18659363 414.00397141 252.18566895 415.21951294 C251.99777644 507.29486055 224.5592238 599.12112059 172 675 C171.54302734 675.66805664 171.08605469 676.33611328 170.61523438 677.02441406 C163.67902579 687.15653472 156.30729969 696.801131 148.45605469 706.23974609 C146.42138879 708.69949478 144.43426675 711.19694797 142.4375 713.6875 C137.74157804 719.41652479 132.72669745 724.8218231 127.66064453 730.22167969 C125.89749315 732.10977064 124.1490187 734.01072461 122.40234375 735.9140625 C111.6266024 747.62182206 111.6266024 747.62182206 105.7109375 752.5390625 C103.92541819 754.06368401 102.3164164 755.68490364 100.6875 757.375 C97.03532376 761.08488557 93.05157538 764.30490824 88.99609375 767.5625 C86.4574374 769.62784754 83.97643085 771.74367986 81.50756836 773.89135742 C16.39482648 830.23600189 -68.6198662 862.99016831 -153 875 C-154.25393555 875.18079102 -155.50787109 875.36158203 -156.79980469 875.54785156 C-194.95265365 880.75568956 -235.89589957 880.46871229 -274 875 C-274.69172302 874.90289734 -275.38344604 874.80579468 -276.09613037 874.70574951 C-318.91043702 868.67888145 -360.33069722 857.31459067 -400 840 C-401.55307368 839.3391107 -403.10645551 838.67894504 -404.66015625 838.01953125 C-420.72633163 831.12689585 -435.89955035 822.75867102 -450.9375 813.875 C-452.0505249 813.21822266 -453.1635498 812.56144531 -454.31030273 811.88476562 C-478.44363099 797.49783101 -501.55191277 780.62855958 -522.19921875 761.5546875 C-523.66909379 760.21396466 -525.14365094 758.87740884 -526.65698242 757.5859375 C-532.80171064 752.33900672 -538.50794776 746.67816935 -544.2175293 740.96777344 C-545.92543056 739.26205402 -547.64118045 737.56450973 -549.35742188 735.8671875 C-555.30463541 729.94967914 -560.90121977 723.95817902 -566.10595703 717.36767578 C-567.97056997 715.03678943 -569.9219043 712.82574492 -571.9375 710.625 C-576.9661751 705.01228586 -581.49917353 699.03651284 -586 693 C-586.49129395 692.34386719 -586.98258789 691.68773437 -587.48876953 691.01171875 C-645.31026489 613.45386832 -676.75434446 519.58190213 -679 423 C-679.02191406 422.25476074 -679.04382813 421.50952148 -679.06640625 420.74169922 C-681.32710415 337.71756867 -658.92168779 252.57518817 -617 181 C-616.57251465 180.27006836 -616.1450293 179.54013672 -615.70458984 178.78808594 C-599.94251351 152.07606773 -581.57101377 126.35190172 -560.4140625 103.625 C-558.52702615 101.57307698 -556.70744322 99.49473243 -554.89453125 97.37890625 C-550.64462592 92.50603201 -546.09178649 87.94127068 -541.51196289 83.3815918 C-540.06475615 81.93974779 -538.62297974 80.49262884 -537.18164062 79.04492188 C-531.95831807 73.81751488 -526.63685016 68.77939176 -521 64 C-519.99039117 63.12296447 -518.98124432 62.24539671 -517.97265625 61.3671875 C-509.24350222 53.89175089 -500.21168073 46.86989908 -491 40 C-490.27119629 39.45553223 -489.54239258 38.91106445 -488.79150391 38.35009766 C-422.99938058 -10.57597858 -344.30853926 -40.00997257 -263 -49 C-262.13052734 -49.10441406 -261.26105469 -49.20882812 -260.36523438 -49.31640625 C-176.02950071 -59.20879372 -88.44383639 -42.40505717 0 0 Z M-258 68 C-259.14243164 68.17160645 -260.28486328 68.34321289 -261.46191406 68.52001953 C-294.93072863 73.67722189 -327.47979777 83.26287247 -358 98 C-358.69738281 98.33354492 -359.39476562 98.66708984 -360.11328125 99.01074219 C-388.39759781 112.59857113 -416.12757674 129.34743931 -439 151 C-440.32743142 152.17337748 -441.66062963 153.34026904 -443 154.5 C-452.47138387 162.76836535 -461.7865911 171.08192461 -469.98046875 180.64453125 C-471.50853506 182.42678267 -473.05634156 184.19213435 -474.61328125 185.94921875 C-529.50131286 248.24978196 -559.62089015 330.23904343 -559.3125 413.0625 C-559.31067719 414.0863681 -559.30885437 415.11023621 -559.30697632 416.16513062 C-559.25788288 432.61015431 -558.61942281 448.73402326 -556 465 C-555.74259033 466.6099585 -555.74259033 466.6099585 -555.47998047 468.25244141 C-542.63970598 545.76455415 -503.52343247 621.44068381 -443.359375 672.9765625 C-441.56338525 674.51683186 -439.78528118 676.07798346 -438.015625 677.6484375 C-416.6138103 696.52997349 -392.32271286 711.95123706 -367 725 C-366.14857422 725.43940918 -365.29714844 725.87881836 -364.41992188 726.33154297 C-331.60130259 743.06397029 -296.19626254 752.93696621 -260 759 C-258.99050293 759.17934082 -257.98100586 759.35868164 -256.94091797 759.54345703 C-224.64903243 765.11254913 -188.25480739 764.44424541 -156 759 C-154.10188785 758.71656258 -152.2034429 758.43534572 -150.3046875 758.15625 C-113.39479047 752.48648842 -77.88477052 740.18196449 -44.82666016 722.95019531 C-43.00871075 722.00453118 -41.18270128 721.07601145 -39.35546875 720.1484375 C-16.36296158 708.33915191 4.75768526 693.20923532 24 676 C25.36898438 674.77990234 25.36898438 674.77990234 26.765625 673.53515625 C28.41383686 672.05631586 30.05739618 670.57226659 31.6953125 669.08203125 C33.23814465 667.68825238 34.79572428 666.3106349 36.3671875 664.94921875 C40.71381112 661.18068144 44.61545889 657.31576424 48.328125 652.921875 C49.93441634 651.07539056 51.61317614 649.38466977 53.375 647.6875 C57.99345347 643.13062591 61.9612344 638.06787414 66 633 C66.85378518 631.94890876 67.70796082 630.89813458 68.5625 629.84765625 C108.77265468 580.03022329 134.42821928 518.5448108 142 455 C142.10296387 454.17838379 142.20592773 453.35676758 142.31201172 452.51025391 C153.16330884 362.87133975 125.93613279 270.97644281 70.6875 200.0625 C68.80921929 197.69384847 66.90952621 195.34350944 65 193 C64.54915039 192.44328613 64.09830078 191.88657227 63.63378906 191.31298828 C56.23338652 182.25550483 48.11679685 173.91040089 39.875 165.625 C39.36997955 165.11471252 38.86495911 164.60442505 38.34463501 164.07867432 C31.57743168 157.25694218 24.53239285 150.97894972 17 145 C15.82606985 144.02355342 14.65498916 143.04365851 13.48828125 142.05859375 C-60.31208513 80.70010902 -163.32849103 53.4253084 -258 68 Z " fill="#FEFEFE" transform="translate(726,99)"/>
<path d="M0 0 C0.85964355 0.42780762 1.71928711 0.85561523 2.60498047 1.29638672 C46.68603723 23.41148007 85.59186563 54.5678631 120.375 89.25 C120.8972818 89.76960297 121.4195636 90.28920593 121.95767212 90.82455444 C127.85781724 96.70174767 133.61713259 102.63842942 139 109 C139.88852953 110.02152397 140.77780731 111.04239777 141.66796875 112.0625 C148.8416151 120.42619311 155.51562406 129.09311968 162 138 C162.74467529 139.0211792 162.74467529 139.0211792 163.50439453 140.06298828 C210.61492411 204.96844274 240.33889918 280.92215304 249.375 360.625 C249.45462982 361.32382294 249.53425964 362.02264587 249.61630249 362.74264526 C251.47724206 379.39930063 252.21149674 396.05722275 252.1875 412.8125 C252.18659363 414.00397141 252.18659363 414.00397141 252.18566895 415.21951294 C251.99777644 507.29486055 224.5592238 599.12112059 172 675 C171.54302734 675.66805664 171.08605469 676.33611328 170.61523438 677.02441406 C163.67902579 687.15653472 156.30729969 696.801131 148.45605469 706.23974609 C146.42138879 708.69949478 144.43426675 711.19694797 142.4375 713.6875 C137.74157804 719.41652479 132.72669745 724.8218231 127.66064453 730.22167969 C125.89749315 732.10977064 124.1490187 734.01072461 122.40234375 735.9140625 C111.6266024 747.62182206 111.6266024 747.62182206 105.7109375 752.5390625 C103.92541819 754.06368401 102.3164164 755.68490364 100.6875 757.375 C97.03532376 761.08488557 93.05157538 764.30490824 88.99609375 767.5625 C86.4574374 769.62784754 83.97643085 771.74367986 81.50756836 773.89135742 C16.39482648 830.23600189 -68.6198662 862.99016831 -153 875 C-154.25393555 875.18079102 -155.50787109 875.36158203 -156.79980469 875.54785156 C-194.95265365 880.75568956 -235.89589957 880.46871229 -274 875 C-274.69172302 874.90289734 -275.38344604 874.80579468 -276.09613037 874.70574951 C-318.91043702 868.67888145 -360.33069722 857.31459067 -400 840 C-401.55307368 839.3391107 -403.10645551 838.67894504 -404.66015625 838.01953125 C-420.72633163 831.12689585 -435.89955035 822.75867102 -450.9375 813.875 C-452.0505249 813.21822266 -453.1635498 812.56144531 -454.31030273 811.88476562 C-478.44363099 797.49783101 -501.55191277 780.62855958 -522.19921875 761.5546875 C-523.66909379 760.21396466 -525.14365094 758.87740884 -526.65698242 757.5859375 C-532.80171064 752.33900672 -538.50794776 746.67816935 -544.2175293 740.96777344 C-545.92543056 739.26205402 -547.64118045 737.56450973 -549.35742188 735.8671875 C-555.30463541 729.94967914 -560.90121977 723.95817902 -566.10595703 717.36767578 C-567.97056997 715.03678943 -569.9219043 712.82574492 -571.9375 710.625 C-576.9661751 705.01228586 -581.49917353 699.03651284 -586 693 C-586.49129395 692.34386719 -586.98258789 691.68773437 -587.48876953 691.01171875 C-645.31026489 613.45386832 -676.75434446 519.58190213 -679 423 C-679.02191406 422.25476074 -679.04382813 421.50952148 -679.06640625 420.74169922 C-681.32710415 337.71756867 -658.92168779 252.57518817 -617 181 C-616.57251465 180.27006836 -616.1450293 179.54013672 -615.70458984 178.78808594 C-599.94251351 152.07606773 -581.57101377 126.35190172 -560.4140625 103.625 C-558.52702615 101.57307698 -556.70744322 99.49473243 -554.89453125 97.37890625 C-550.64462592 92.50603201 -546.09178649 87.94127068 -541.51196289 83.3815918 C-540.06475615 81.93974779 -538.62297974 80.49262884 -537.18164062 79.04492188 C-531.95831807 73.81751488 -526.63685016 68.77939176 -521 64 C-519.99039117 63.12296447 -518.98124432 62.24539671 -517.97265625 61.3671875 C-509.24350222 53.89175089 -500.21168073 46.86989908 -491 40 C-490.27119629 39.45553223 -489.54239258 38.91106445 -488.79150391 38.35009766 C-422.99938058 -10.57597858 -344.30853926 -40.00997257 -263 -49 C-262.13052734 -49.10441406 -261.26105469 -49.20882812 -260.36523438 -49.31640625 C-176.02950071 -59.20879372 -88.44383639 -42.40505717 0 0 Z M-342 -2 C-343.48161621 -1.54802246 -343.48161621 -1.54802246 -344.99316406 -1.08691406 C-398.79420722 15.55530714 -448.96617923 43.77378929 -492 80 C-492.79954102 80.66418945 -492.79954102 80.66418945 -493.61523438 81.34179688 C-502.05272615 88.35540178 -509.96041535 95.73028362 -517.61865234 103.5859375 C-520.70849596 106.74895875 -523.85104371 109.85736992 -527.015625 112.9453125 C-532.96822124 118.77896661 -538.59314817 124.66884178 -543.7734375 131.21484375 C-545.75247329 133.69037448 -547.79779999 136.09004187 -549.87866211 138.47998047 C-564.86199554 155.77069924 -577.54102647 175.23179653 -589 195 C-589.38091797 195.65210449 -589.76183594 196.30420898 -590.15429688 196.97607422 C-621.41477341 250.77166133 -640.11047081 311.129375 -646 373 C-646.09571289 373.97324219 -646.19142578 374.94648438 -646.29003906 375.94921875 C-647.32321173 388.06585307 -647.24374196 400.2229445 -647.25 412.375 C-647.25067474 413.55296143 -647.25134949 414.73092285 -647.25204468 415.94458008 C-647.19249954 481.52659629 -632.34795446 544.85325928 -604 604 C-603.37158203 605.32257813 -603.37158203 605.32257813 -602.73046875 606.671875 C-590.84534243 631.57404442 -575.99140771 655.25701279 -559 677 C-558.10770964 678.15987687 -557.21580311 679.32004909 -556.32421875 680.48046875 C-551.44524855 686.79607645 -546.43893711 692.90485151 -541.03515625 698.78515625 C-539.21532831 700.76565997 -537.44433669 702.77626277 -535.6875 704.8125 C-526.73896734 715.07515284 -517.54296291 725.17928094 -507.2109375 734.06640625 C-504.7187611 736.24595981 -502.30161332 738.4977328 -499.875 740.75 C-494.06456404 746.04680626 -487.95230889 750.88113348 -481.72021484 755.66943359 C-480.12078866 756.90657136 -478.53816052 758.16534315 -476.95703125 759.42578125 C-395.33711132 823.94036221 -291.35582699 851.74753437 -165.203125 846.0390625 C-119.00618273 840.58491095 -74.38757823 828.13628988 -32 809 C-30.47928531 808.33045964 -28.95846167 807.66116663 -27.4375 806.9921875 C7.98667648 791.13270744 40.68790947 768.27039665 70 743 C70.70511719 742.39671875 71.41023437 741.7934375 72.13671875 741.171875 C85.05575003 730.01329872 98.01300596 718.30694087 109.07421875 705.26953125 C110.68309967 703.37346671 112.31289487 701.50205317 113.95703125 699.63671875 C120.97204502 691.65859513 127.67783093 683.53978433 134 675 C134.49467773 674.33661621 134.98935547 673.67323242 135.49902344 672.98974609 C147.50089725 656.84814904 158.21900989 640.06010809 167.73925781 622.34082031 C168.59422875 620.75339557 169.45578183 619.1695016 170.32324219 617.58886719 C199.45846013 564.49942398 215.73846901 504.27685925 220 444 C220.05784668 443.20609863 220.11569336 442.41219727 220.17529297 441.59423828 C225.26313236 369.23217838 210.83371162 296.90583848 181 231 C180.34879408 229.53132282 179.69774093 228.06257788 179.046875 226.59375 C164.1381051 193.46445354 143.24762685 162.79854891 120 135 C119.55962402 134.47325684 119.11924805 133.94651367 118.66552734 133.40380859 C106.40522357 118.78952649 93.58248671 104.2243894 79.07421875 91.796875 C76.79842282 89.8253757 74.59077333 87.78865605 72.375 85.75 C66.81663402 80.74747062 60.99395848 76.13039747 55.06347656 71.58349609 C53.63013327 70.48355944 52.20001784 69.37940884 50.77246094 68.27197266 C15.19250101 40.7082563 -24.65051316 19.17938469 -67 4 C-68.46155518 3.46898682 -68.46155518 3.46898682 -69.95263672 2.92724609 C-104.74078386 -9.61013621 -142.08171136 -17.53659834 -179 -20 C-179.75394043 -20.05494629 -180.50788086 -20.10989258 -181.28466797 -20.16650391 C-235.52156262 -24.00899237 -290.02715045 -17.90730189 -342 -2 Z " fill="#010101" transform="translate(726,99)"/>
<path d="M0 0 C0.66 0 1.32 0 2 0 C2.26103516 0.64324219 2.52207031 1.28648437 2.79101562 1.94921875 C13.66263904 28.68998926 13.66263904 28.68998926 29 53 C29.57363281 53.75925781 30.14726563 54.51851562 30.73828125 55.30078125 C40.44299616 67.22901079 55.49837428 75.56626703 70.78662109 77.31958008 C94.21007591 78.58722675 114.83843833 71.74991701 132.64453125 56.1796875 C133.42183594 55.46039062 134.19914062 54.74109375 135 54 C135.72574219 53.34257813 136.45148438 52.68515625 137.19921875 52.0078125 C142.2883277 47.18042915 146.11355028 41.82967458 150 36 C154.62 38.64 159.24 41.28 164 44 C160.642505 57.42998001 145.54832437 69.93747078 134.546875 77.5234375 C132 79 132 79 128.890625 80.1640625 C124.43406869 82.02277257 120.99063922 83.61982011 119.04931641 88.28417969 C117.34244373 94.14333812 116.37940497 100.14112769 115.44726562 106.16455078 C111.96008304 128.27161328 103.78658296 149.95844723 94 170 C93.62794434 170.76860352 93.25588867 171.53720703 92.87255859 172.32910156 C77.83684086 203.05127138 57.00829059 227.87353238 24.578125 240.3125 C6.72809835 246.23508949 -11.70472284 243.41817842 -28.3125 235.25 C-70.24898968 213.57944527 -90.46553118 168.59860702 -105.3125 126.25 C-105.74240234 125.02627686 -106.17230469 123.80255371 -106.61523438 122.54174805 C-108.7933991 116.15689552 -110.48368302 109.95361007 -111.6550293 103.31518555 C-113.04530178 95.1319922 -113.04530178 95.1319922 -118.3984375 89.16796875 C-121.78745162 87.17984666 -125.35185489 85.62656859 -128.93847656 84.03369141 C-141.78838092 77.59047788 -155.05234421 62.71123548 -161 50 C-159.70687325 46.12061975 -158.07873489 45.3929256 -154.6875 43.1875 C-153.72199219 42.54167969 -152.75648438 41.89585937 -151.76171875 41.23046875 C-149 40 -149 40 -146.8828125 40.48046875 C-144.46531782 42.43151736 -142.94142797 44.56019291 -141.1875 47.125 C-129.61249468 63.43620016 -114.16427872 75.29148041 -94.27734375 79.5625 C-72.31511673 82.49428716 -52.92593798 76.59329995 -34.9375 63.9375 C-14.14259035 47.92946043 -6.55362473 24.41493803 0 0 Z " fill="#C33517" transform="translate(514,566)"/>
<path d="M0 0 C14.91521791 11.76759261 25.95958108 27.76550629 28.83203125 46.796875 C30.9284935 69.30787881 26.42990005 88.80458761 12.45703125 106.734375 C1.92766568 118.90726076 -10.97705691 126.0215587 -26.16796875 130.796875 C-26.91433594 131.04566406 -27.66070312 131.29445313 -28.4296875 131.55078125 C-46.05758656 136.50321655 -66.411244 131.81570568 -82.0078125 123.234375 C-99.86254899 112.41635794 -111.19235646 96.98089505 -117.265625 77.2265625 C-121.86363896 58.44955663 -119.1796065 39.87624015 -110.0859375 22.94921875 C-107.17923357 18.17180517 -103.90914849 13.94486264 -100.16796875 9.796875 C-99.57628906 9.11238281 -98.98460937 8.42789062 -98.375 7.72265625 C-72.70186691 -20.14008307 -29.92901695 -20.81376764 0 0 Z " fill="#010000" transform="translate(364.16796875,419.203125)"/>
<path d="M0 0 C1.73926758 -0.02416992 1.73926758 -0.02416992 3.51367188 -0.04882812 C19.51847847 -0.05782464 34.15736931 5.37689076 46.6875 15.3125 C47.52152344 15.96992188 48.35554687 16.62734375 49.21484375 17.3046875 C62.83087112 28.7597737 72.36954161 45.61875094 74.6875 63.3125 C76.32195903 84.22968395 71.47031715 104.07357529 57.6875 120.3125 C47.92729797 131.2445196 37.47942492 138.39710117 23.6875 143.3125 C22.39199219 143.79396484 22.39199219 143.79396484 21.0703125 144.28515625 C3.68537109 149.70220321 -16.2433125 147.1458129 -32.5 139.625 C-51.60405369 129.37968089 -64.70888869 113.86588814 -71.3125 93.3125 C-76.90447799 74.1099865 -73.65001148 54.32962586 -64.41796875 37.015625 C-61.83377401 32.36055855 -58.89396636 28.25441372 -55.3125 24.3125 C-54.65894531 23.56742187 -54.00539063 22.82234375 -53.33203125 22.0546875 C-39.21047178 6.87851247 -20.29630864 -0.05585115 0 0 Z " fill="#010000" transform="translate(710.3125,406.6875)"/>
<path d="M0 0 C0.66 0 1.32 0 2 0 C2.26103516 0.64324219 2.52207031 1.28648437 2.79101562 1.94921875 C13.66263904 28.68998926 13.66263904 28.68998926 29 53 C29.57363281 53.75925781 30.14726563 54.51851562 30.73828125 55.30078125 C40.44299616 67.22901079 55.49837428 75.56626703 70.78662109 77.31958008 C94.21007591 78.58722675 114.83843833 71.74991701 132.64453125 56.1796875 C133.42183594 55.46039062 134.19914062 54.74109375 135 54 C135.72574219 53.34257813 136.45148438 52.68515625 137.19921875 52.0078125 C142.2883277 47.18042915 146.11355028 41.82967458 150 36 C154.62 38.64 159.24 41.28 164 44 C160.642505 57.42998001 145.54832437 69.93747078 134.546875 77.5234375 C132 79 132 79 128.890625 80.1640625 C124.43406869 82.02277257 120.99063922 83.61982011 119.04931641 88.28417969 C117.34244373 94.14333812 116.37940497 100.14112769 115.44726562 106.16455078 C111.96008304 128.27161328 103.78658296 149.95844723 94 170 C93.62794434 170.76860352 93.25588867 171.53720703 92.87255859 172.32910156 C77.83684086 203.05127138 57.00829059 227.87353238 24.578125 240.3125 C6.72809835 246.23508949 -11.70472284 243.41817842 -28.3125 235.25 C-70.24898968 213.57944527 -90.46553118 168.59860702 -105.3125 126.25 C-105.74240234 125.02627686 -106.17230469 123.80255371 -106.61523438 122.54174805 C-108.7933991 116.15689552 -110.48368302 109.95361007 -111.6550293 103.31518555 C-113.04530178 95.1319922 -113.04530178 95.1319922 -118.3984375 89.16796875 C-121.78745162 87.17984666 -125.35185489 85.62656859 -128.93847656 84.03369141 C-141.78838092 77.59047788 -155.05234421 62.71123548 -161 50 C-159.70687325 46.12061975 -158.07873489 45.3929256 -154.6875 43.1875 C-153.72199219 42.54167969 -152.75648438 41.89585937 -151.76171875 41.23046875 C-149 40 -149 40 -146.8828125 40.48046875 C-144.46531782 42.43151736 -142.94142797 44.56019291 -141.1875 47.125 C-129.61249468 63.43620016 -114.16427872 75.29148041 -94.27734375 79.5625 C-72.31511673 82.49428716 -52.92593798 76.59329995 -34.9375 63.9375 C-14.14259035 47.92946043 -6.55362473 24.41493803 0 0 Z M2 46 C0.61447395 48.05849585 -0.66855474 50.12118827 -1.9375 52.25 C-15.65127818 74.32631764 -37.69302165 89.78640657 -63.00537109 95.71582031 C-74.47683599 98.06199544 -86.35847164 97.33698479 -98 97 C-89.35415707 132.27197867 -76.06298631 169.19493511 -52 197 C-51.30390625 197.82886719 -50.6078125 198.65773438 -49.890625 199.51171875 C-38.14292001 213.11322825 -21.39836335 226.30100213 -2.88867188 228.21875 C17.02323508 229.60272268 33.43318417 222.26122489 48.30761719 209.41308594 C58.35161636 200.36549084 66.2213344 189.63972073 73 178 C73.39541992 177.32291992 73.79083984 176.64583984 74.19824219 175.94824219 C87.55758468 152.6938752 103 119.36160593 103 92 C102.4332959 92.14074951 101.8665918 92.28149902 101.28271484 92.42651367 C94.02662895 94.06930542 87.04598744 94.33329873 79.625 94.3125 C78.48289062 94.32861328 77.34078125 94.34472656 76.1640625 94.36132812 C54.91003583 94.37340428 36.96766696 85.14087214 21.671875 70.7734375 C14.58136041 63.41340043 8.51304352 55.19235707 4 46 C3.34 46 2.68 46 2 46 Z " fill="#030000" transform="translate(514,566)"/>
</svg>
